<svg width="164" height="45" viewBox="0 0 164 45" fill="none" xmlns="http://www.w3.org/2000/svg">
<path d="M7.69434 37.657V24.3647L24.6951 17.0801H27.5843C31.7181 17.0801 33.7895 22.2524 30.8661 25.277L15.617 41.0524C12.6936 44.077 7.69434 41.9355 7.69434 37.657Z" fill="url(#paint0_linear_7330_16594)"/>
<g style="mix-blend-mode:multiply">
<path opacity="0.1" d="M17.6056 30.2547L29.8346 17.0793H24.6941C22.5395 18.5024 12.2272 21.4363 7.69336 22.947V27.7255C7.69336 32.004 14.6807 33.2793 17.6056 30.2547Z" fill="white"/>
<path opacity="0.103" d="M17.6017 30.2424L29.8203 17.0793H24.6931C22.534 18.5009 12.2232 21.4363 7.69238 22.947V27.7147C7.69387 31.9963 14.6797 33.267 17.6017 30.2424Z" fill="white"/>
<path opacity="0.106" d="M17.5967 30.2317L29.8064 17.0793H24.6941C22.5305 18.5009 12.2212 21.4347 7.69336 22.947V27.7024C7.69336 31.987 14.6763 33.2547 17.5967 30.2317Z" fill="#FFFEFF"/>
<path opacity="0.109" d="M17.5932 30.2191L29.7925 17.0791H24.6951C22.527 18.4991 12.2178 21.4345 7.69434 22.9468V27.6914C7.69285 31.9791 14.6728 33.2437 17.5932 30.2191Z" fill="#FEFEFF"/>
<path opacity="0.112" d="M17.5893 30.2086L29.7781 17.0793H24.6941C22.5216 18.4993 12.2138 21.4347 7.69336 22.947V27.6793C7.69336 31.9717 14.6703 33.2317 17.5893 30.2086Z" fill="#FEFEFF"/>
<path opacity="0.115" d="M17.5848 30.1963L29.7632 17.0793H24.6941C22.5171 18.4978 12.2108 21.4347 7.69336 22.947V27.6686C7.69336 31.964 14.6688 33.2209 17.5848 30.1963Z" fill="#FEFDFF"/>
<path opacity="0.1179" d="M17.5818 30.1855L29.7499 17.0793H24.6941C22.5127 18.4978 12.2079 21.4347 7.69336 22.947V27.6563C7.69336 31.9563 14.6659 33.2086 17.5818 30.1855Z" fill="#FEFDFE"/>
<path opacity="0.1209" d="M17.5774 30.1735L29.735 17.0781H24.6941C22.5082 18.495 12.2049 21.4335 7.69336 22.9458V27.6443C7.69336 31.9474 14.6629 33.1981 17.5774 30.1735Z" fill="#FEFDFE"/>
<path opacity="0.1239" d="M17.5734 30.1624L29.7206 17.0793H24.6931C22.5028 18.4963 12.2009 21.4347 7.69238 22.947V27.6332C7.69387 31.9393 14.6604 33.1855 17.5734 30.1624Z" fill="#FDFCFE"/>
<path opacity="0.1269" d="M17.5699 30.1504L29.7067 17.0781H24.6941C22.4993 18.495 12.1974 21.432 7.69336 22.9458V27.6197C7.69336 31.932 14.6569 33.1735 17.5699 30.1504Z" fill="#FDFCFE"/>
<path opacity="0.1299" d="M17.566 30.1393L29.6924 17.0793H24.6931C22.4939 18.4947 12.1935 21.4332 7.69238 22.947V27.6101C7.69387 31.924 14.6559 33.1624 17.566 30.1393Z" fill="#FDFCFE"/>
<path opacity="0.1329" d="M17.5615 30.1274L29.6775 17.0781H24.6931C22.4894 18.4935 12.1905 21.432 7.69238 22.9458V27.5966C7.69387 31.9166 14.653 33.1504 17.5615 30.1274Z" fill="#FDFBFE"/>
<path opacity="0.1359" d="M17.558 30.1163L29.6651 17.0793H24.6941C22.4859 18.4932 12.1885 21.4332 7.69336 22.947V27.587C7.69336 31.907 14.6495 33.1393 17.558 30.1163Z" fill="#FCFBFE"/>
<path opacity="0.1389" d="M17.5536 30.1055L29.6502 17.0793H24.6941C22.4815 18.4932 12.1856 21.4332 7.69336 22.947V27.5747C7.69336 31.8993 14.6465 33.127 17.5536 30.1055Z" fill="#FCFBFE"/>
<path opacity="0.1419" d="M17.5506 30.0932L29.6369 17.0793H24.6941C22.477 18.4917 12.1826 21.4332 7.69336 22.947V27.564C7.69336 31.8917 14.6435 33.1163 17.5506 30.0932Z" fill="#FCFAFE"/>
<path opacity="0.1449" d="M17.5461 30.0824L29.622 17.0793H24.6941C22.4725 18.4917 12.1796 21.4332 7.69336 22.947V27.5517C7.69336 31.884 14.6421 33.104 17.5461 30.0824Z" fill="#FCFAFE"/>
<path opacity="0.1478" d="M17.5422 30.0701L29.6076 17.0793H24.6931C22.4671 18.4917 12.1742 21.4317 7.69238 22.947V27.5409C7.69387 31.8763 14.6396 33.0917 17.5422 30.0701Z" fill="#FCFAFE"/>
<path opacity="0.1508" d="M17.5387 30.0593L29.5937 17.0793H24.6941C22.4636 18.4901 12.1722 21.4317 7.69336 22.947V27.5286C7.69336 31.867 14.6361 33.0809 17.5387 30.0593Z" fill="#FBF9FD"/>
<path opacity="0.1538" d="M17.5348 30.0474L29.5794 17.0781H24.6931C22.4582 18.4889 12.1682 21.4304 7.69238 22.9458V27.5166C7.69387 31.8597 14.6336 33.0689 17.5348 30.0474Z" fill="#FBF9FD"/>
<path opacity="0.1568" d="M17.5303 30.0363L29.5645 17.0793H24.6931C22.4537 18.4886 12.1652 21.4317 7.69238 22.947V27.5055C7.69387 31.8517 14.6307 33.0578 17.5303 30.0363Z" fill="#FBF8FD"/>
<path opacity="0.1598" d="M17.5268 30.0243L29.5506 17.0781H24.6941C22.4502 18.4874 12.1632 21.4304 7.69336 22.9458V27.4935C7.69336 31.8443 14.6287 33.0458 17.5268 30.0243Z" fill="#FBF8FD"/>
<path opacity="0.1628" d="M17.5224 30.0132L29.5372 17.0793H24.6941C22.4458 18.487 12.1603 21.4317 7.69336 22.947V27.4824C7.69336 31.8347 14.6257 33.0347 17.5224 30.0132Z" fill="#FBF8FD"/>
<path opacity="0.1658" d="M17.5179 30.0012L29.5223 17.0781H24.6941C22.4413 18.4858 12.1558 21.4304 7.69336 22.9458V27.4704C7.69336 31.8274 14.6227 33.0227 17.5179 30.0012Z" fill="#FAF7FD"/>
<path opacity="0.1688" d="M17.5149 29.9901L29.509 17.0793H24.6941C22.4368 18.487 12.1528 21.4301 7.69336 22.947V27.4593C7.69336 31.8193 14.6197 33.0101 17.5149 29.9901Z" fill="#FAF7FD"/>
<path opacity="0.1718" d="M17.5105 29.9793L29.4941 17.0793H24.6941C22.4324 18.4855 12.1499 21.4301 7.69336 22.947V27.4486C7.69336 31.8117 14.6183 32.9993 17.5105 29.9793Z" fill="#FAF7FD"/>
<path opacity="0.1748" d="M17.5075 29.967L29.4807 17.0793H24.6941C22.4279 18.4855 12.1469 21.4301 7.69336 22.947V27.4363C7.69336 31.804 14.6153 32.987 17.5075 29.967Z" fill="#FAF6FD"/>
<path opacity="0.1777" d="M17.503 29.9563L29.4658 17.0793H24.6941C22.4235 18.484 12.1439 21.4301 7.69336 22.947V27.4255C7.69336 31.7947 14.6123 32.9763 17.503 29.9563Z" fill="#F9F6FD"/>
<path opacity="0.1807" d="M17.4991 29.944L29.4515 17.0793H24.6931C22.418 18.484 12.14 21.4301 7.69238 22.947V27.4132C7.69387 31.787 14.6099 32.964 17.4991 29.944Z" fill="#F9F6FD"/>
<path opacity="0.1837" d="M17.4956 29.9332L29.4376 17.0793H24.6941C22.4145 18.4824 12.1365 21.4301 7.69336 22.947V27.4024C7.69336 31.7794 14.6064 32.9517 17.4956 29.9332Z" fill="#F9F5FC"/>
<path opacity="0.1867" d="M17.4916 29.9212L29.4232 17.0781H24.6931C22.4091 18.4812 12.1325 21.4289 7.69238 22.9458V27.3889C7.69387 31.772 14.6054 32.9412 17.4916 29.9212Z" fill="#F9F5FC"/>
<path opacity="0.1897" d="M17.4867 29.9101L29.4094 17.0793H24.6941C22.4041 18.4824 12.1305 21.4286 7.69336 22.947V27.3778C7.69336 31.764 14.6019 32.9286 17.4867 29.9101Z" fill="#F9F5FC"/>
<path opacity="0.1927" d="M17.4837 29.8981L29.3959 17.0781H24.6941C22.3997 18.4797 12.1276 21.4274 7.69336 22.9458V27.3658C7.69336 31.755 14.5989 32.9181 17.4837 29.8981Z" fill="#F8F4FC"/>
<path opacity="0.1957" d="M17.4792 29.887L29.3811 17.0793H24.6941C22.3952 18.4809 12.1246 21.4286 7.69336 22.947V27.3547C7.69336 31.747 14.596 32.9055 17.4792 29.887Z" fill="#F8F4FC"/>
<path opacity="0.1987" d="M17.4753 29.875L29.3667 17.0781H24.6931C22.3898 18.4781 12.1206 21.4274 7.69238 22.9458V27.3427C7.69387 31.7397 14.5935 32.8951 17.4753 29.875Z" fill="#F8F4FC"/>
<path opacity="0.2017" d="M17.4718 29.864L29.3528 17.0793H24.6941C22.3863 18.4793 12.1172 21.4286 7.69336 22.947V27.3317C7.69336 31.7317 14.5915 32.8824 17.4718 29.864Z" fill="#F8F3FC"/>
<path opacity="0.2047" d="M17.4673 29.8532L29.338 17.0793H24.6941C22.3818 18.4778 12.1142 21.4286 7.69336 22.947V27.3209C7.69336 31.724 14.5885 32.8701 17.4673 29.8532Z" fill="#F8F3FC"/>
<path opacity="0.2076" d="M17.4644 29.8409L29.3246 17.0793H24.6941C22.3774 18.4778 12.1112 21.4286 7.69336 22.947V27.3086C7.69336 31.7147 14.5856 32.8593 17.4644 29.8409Z" fill="#F7F3FC"/>
<path opacity="0.2106" d="M17.4599 29.8301L29.3097 17.0793H24.6941C22.3729 18.4778 12.1082 21.427 7.69336 22.947V27.2978C7.69336 31.707 14.5826 32.847 17.4599 29.8301Z" fill="#F7F2FC"/>
<path opacity="0.2136" d="M17.456 29.8178L29.2954 17.0793H24.6931C22.3675 18.4763 12.1043 21.427 7.69238 22.947V27.2855C7.69387 31.6993 14.5816 32.8363 17.456 29.8178Z" fill="#F7F2FC"/>
<path opacity="0.2166" d="M17.452 29.8068L29.2824 17.0791H24.6951C22.365 18.476 12.1033 21.4268 7.69434 22.9468V27.2745C7.69285 31.6914 14.5776 32.8237 17.452 29.8068Z" fill="#F7F2FC"/>
<path opacity="0.2196" d="M17.448 29.7947L29.2681 17.0793H24.6941C22.3595 18.4747 12.0993 21.427 7.69336 22.947V27.2624C7.69336 31.684 14.5751 32.8132 17.448 29.7947Z" fill="#F6F1FB"/>
<path opacity="0.2226" d="M17.4435 29.784L29.2532 17.0793H24.6941C22.3551 18.4747 12.0948 21.427 7.69336 22.947V27.2517C7.69336 31.6747 14.5722 32.8009 17.4435 29.784Z" fill="#F6F1FB"/>
<path opacity="0.2256" d="M17.4406 29.772L29.2398 17.0781H24.6941C22.3506 18.472 12.0919 21.4258 7.69336 22.9458V27.2381C7.69336 31.6674 14.5692 32.7889 17.4406 29.772Z" fill="#F6F1FB"/>
<path opacity="0.2286" d="M17.4361 29.7609L29.225 17.0793H24.6941C22.3462 18.4732 12.0889 21.427 7.69336 22.947V27.2286C7.69336 31.6593 14.5677 32.7778 17.4361 29.7609Z" fill="#F6F0FB"/>
<path opacity="0.2316" d="M17.4322 29.7489L29.2106 17.0781H24.6931C22.3407 18.4704 12.085 21.4243 7.69238 22.9458V27.215C7.69387 31.652 14.5653 32.7658 17.4322 29.7489Z" fill="#F6F0FB"/>
<path opacity="0.2346" d="M17.4287 29.7378L29.1967 17.0793H24.6941C22.3372 18.4717 12.083 21.4255 7.69336 22.947V27.2055C7.69336 31.644 14.5618 32.7547 17.4287 29.7378Z" fill="#F5F0FB"/>
<path opacity="0.2375" d="M17.4247 29.7258L29.1823 17.0781H24.6931C22.3318 18.4704 12.079 21.4243 7.69238 22.9458V27.192C7.69387 31.6351 14.5593 32.7427 17.4247 29.7258Z" fill="#F5EFFB"/>
<path opacity="0.2405" d="M17.4212 29.7147L29.1684 17.0793H24.6941C22.3283 18.4701 12.0755 21.4255 7.69336 22.947V27.1824C7.69336 31.627 14.5558 32.7317 17.4212 29.7147Z" fill="#F5EFFB"/>
<path opacity="0.2435" d="M17.4173 29.704L29.1541 17.0793H24.6931C22.3229 18.4701 12.0716 21.4255 7.69238 22.947V27.1701C7.69387 31.6193 14.5548 32.7193 17.4173 29.704Z" fill="#F5EFFB"/>
<path opacity="0.2465" d="M17.4123 29.6917L29.1402 17.0793H24.6941C22.3194 18.4686 12.0696 21.4255 7.69336 22.947V27.1593C7.69336 31.6117 14.5514 32.707 17.4123 29.6917Z" fill="#F5EEFB"/>
<path opacity="0.2495" d="M17.4093 29.6809L29.1268 17.0793H24.6941C22.3149 18.4686 12.0666 21.4255 7.69336 22.947V27.147C7.69336 31.604 14.5484 32.6963 17.4093 29.6809Z" fill="#F4EEFB"/>
<path opacity="0.2525" d="M17.4049 29.6686L29.112 17.0793H24.6941C22.3105 18.467 12.0636 21.424 7.69336 22.947V27.1347C7.69336 31.5947 14.5454 32.684 17.4049 29.6686Z" fill="#F4EEFA"/>
<path opacity="0.2555" d="M17.4004 29.6578L29.0971 17.0793H24.6941C22.306 18.467 12.0606 21.424 7.69336 22.947V27.124C7.69336 31.587 14.5424 32.6732 17.4004 29.6578Z" fill="#F4EDFA"/>
<path opacity="0.2585" d="M17.3974 29.6458L29.0837 17.0781H24.6941C22.3015 18.4658 12.0562 21.4227 7.69336 22.9458V27.1104C7.69336 31.5797 14.5409 32.6612 17.3974 29.6458Z" fill="#F4EDFA"/>
<path opacity="0.2615" d="M17.393 29.6347L29.0688 17.0793H24.6941C22.2971 18.4655 12.0532 21.424 7.69336 22.947V27.1009C7.69336 31.5717 14.538 32.6501 17.393 29.6347Z" fill="#F4EDFA"/>
<path opacity="0.2645" d="M17.389 29.6227L29.0545 17.0781H24.6931C22.2916 18.4643 12.0493 21.4227 7.69238 22.9458V27.0874C7.69387 31.5643 14.5355 32.6381 17.389 29.6227Z" fill="#F3ECFA"/>
<path opacity="0.2674" d="M17.3856 29.6117L29.0406 17.0793H24.6941C22.2882 18.464 12.0473 21.424 7.69336 22.947V27.0778C7.69336 31.5547 14.532 32.6255 17.3856 29.6117Z" fill="#F3ECFA"/>
<path opacity="0.2704" d="M17.3816 29.5997L29.0262 17.0781H24.6931C22.2827 18.4627 12.0433 21.4227 7.69238 22.9458V27.0643C7.69387 31.5474 14.531 32.6151 17.3816 29.5997Z" fill="#F3EBFA"/>
<path opacity="0.2734" d="M17.3766 29.5886L29.0123 17.0793H24.6941C22.2792 18.4624 12.0413 21.4224 7.69336 22.947V27.0547C7.69336 31.5393 14.5276 32.6024 17.3766 29.5886Z" fill="#F3EBFA"/>
<path opacity="0.2764" d="M17.3737 29.5778L28.9989 17.0793H24.6941C22.2748 18.4624 12.0369 21.4224 7.69336 22.947V27.0424C7.69336 31.5317 14.5246 32.5917 17.3737 29.5778Z" fill="#F2EBFA"/>
<path opacity="0.2794" d="M17.3692 29.5655L28.9841 17.0793H24.6941C22.2703 18.4624 12.0339 21.4224 7.69336 22.947V27.0317C7.69336 31.5224 14.5216 32.5793 17.3692 29.5655Z" fill="#F2EAFA"/>
<path opacity="0.2824" d="M17.3662 29.5547L28.9707 17.0793H24.6941C22.2658 18.4609 12.0309 21.4224 7.69336 22.947V27.0193C7.69336 31.5147 14.5186 32.5686 17.3662 29.5547Z" fill="#F2EAFA"/>
<path opacity="0.2854" d="M17.3618 29.5424L28.9558 17.0793H24.6941C22.2614 18.4609 12.0279 21.4224 7.69336 22.947V27.0086C7.69336 31.507 14.5172 32.5563 17.3618 29.5424Z" fill="#F2EAF9"/>
<path opacity="0.2884" d="M17.3578 29.5317L28.9415 17.0793H24.6931C22.256 18.4593 12.024 21.4224 7.69238 22.947V26.9963C7.69387 31.4993 14.5147 32.544 17.3578 29.5317Z" fill="#F2E9F9"/>
<path opacity="0.2914" d="M17.3543 29.5197L28.9276 17.0781H24.6941C22.2525 18.4581 12.022 21.4212 7.69336 22.9458V26.9843C7.69336 31.492 14.5112 32.5335 17.3543 29.5197Z" fill="#F1E9F9"/>
<path opacity="0.2944" d="M17.3504 29.5086L28.9132 17.0793H24.6931C22.247 18.4578 12.018 21.4209 7.69238 22.947V26.9732C7.69387 31.4824 14.5087 32.5209 17.3504 29.5086Z" fill="#F1E9F9"/>
<path opacity="0.2973" d="M17.3459 29.4966L28.8983 17.0781H24.6931C22.2426 18.4566 12.0136 21.4197 7.69238 22.9458V26.9612C7.69387 31.475 14.5058 32.5104 17.3459 29.4966Z" fill="#F1E8F9"/>
<path opacity="0.3003" d="M17.3424 29.4855L28.8859 17.0793H24.6941C22.2391 18.4578 12.0116 21.4209 7.69336 22.947V26.9501C7.69336 31.467 14.5038 32.4978 17.3424 29.4855Z" fill="#F1E8F9"/>
<path opacity="0.3033" d="M17.338 29.4735L28.871 17.0781H24.6941C22.2346 18.455 12.0086 21.4197 7.69336 22.9458V26.9381C7.69336 31.4597 14.5008 32.4874 17.338 29.4735Z" fill="#F1E8F9"/>
<path opacity="0.3063" d="M17.3335 29.4624L28.8562 17.0793H24.6941C22.2302 18.4563 12.0056 21.4209 7.69336 22.947V26.927C7.69336 31.4516 14.4978 32.4747 17.3335 29.4624Z" fill="#F0E7F9"/>
<path opacity="0.3093" d="M17.3305 29.4516L28.8428 17.0793H24.6941C22.2257 18.4547 12.0027 21.4209 7.69336 22.947V26.9163C7.69336 31.4424 14.4948 32.4624 17.3305 29.4516Z" fill="#F0E7F9"/>
<path opacity="0.3123" d="M17.3261 29.4393L28.8279 17.0793H24.6941C22.2212 18.4547 11.9997 21.4193 7.69336 22.947V26.904C7.69336 31.4347 14.4919 32.4517 17.3261 29.4393Z" fill="#F0E7F9"/>
<path opacity="0.3153" d="M17.3231 29.4286L28.8146 17.0793H24.6941C22.2153 18.4532 11.9952 21.4193 7.69336 22.947V26.8917C7.69336 31.427 14.4904 32.4393 17.3231 29.4286Z" fill="#F0E6F9"/>
<path opacity="0.3183" d="M17.3186 29.4163L28.7997 17.0793H24.6941C22.2108 18.4532 11.9922 21.4193 7.69336 22.947V26.8809C7.69336 31.4193 14.4874 32.4286 17.3186 29.4163Z" fill="#EFE6F8"/>
<path opacity="0.3213" d="M17.3147 29.4055L28.7853 17.0793H24.6931C22.2054 18.4532 11.9883 21.4193 7.69238 22.947V26.8686C7.69387 31.4117 14.4849 32.4163 17.3147 29.4055Z" fill="#EFE6F8"/>
<path opacity="0.3243" d="M17.3112 29.3932L28.7714 17.0793H24.6941C22.2019 18.4517 11.9863 21.4193 7.69336 22.947V26.8578C7.69336 31.4024 14.4815 32.404 17.3112 29.3932Z" fill="#EFE5F8"/>
<path opacity="0.3272" d="M17.3073 29.3824L28.7571 17.0793H24.6931C22.1965 18.4517 11.9823 21.4193 7.69238 22.947V26.8455C7.69387 31.3947 14.4805 32.3932 17.3073 29.3824Z" fill="#EFE5F8"/>
<path opacity="0.3302" d="M17.3023 29.3704L28.7432 17.0781H24.6941C22.193 18.4489 11.9803 21.4181 7.69336 22.9458V26.8335C7.69336 31.3874 14.477 32.3812 17.3023 29.3704Z" fill="#EFE5F8"/>
<path opacity="0.3332" d="M17.2993 29.3593L28.7298 17.0793H24.6941C22.1885 18.4501 11.9759 21.4178 7.69336 22.947V26.8224C7.69336 31.3793 14.474 32.3701 17.2993 29.3593Z" fill="#EEE4F8"/>
<path opacity="0.3362" d="M17.2948 29.3474L28.7149 17.0781H24.6941C22.1841 18.4474 11.9729 21.4166 7.69336 22.9458V26.8104C7.69336 31.372 14.4711 32.3581 17.2948 29.3474Z" fill="#EEE4F8"/>
<path opacity="0.3392" d="M17.2909 29.3363L28.7006 17.0793H24.6931C22.1786 18.4486 11.969 21.4178 7.69238 22.947V26.7993C7.69387 31.3624 14.4686 32.347 17.2909 29.3363Z" fill="#EEE4F8"/>
<path opacity="0.3422" d="M17.2874 29.3243L28.6867 17.0781H24.6941C22.1752 18.4474 11.967 21.4166 7.69336 22.9458V26.7874C7.69336 31.3551 14.4666 32.3351 17.2874 29.3243Z" fill="#EEE3F8"/>
<path opacity="0.3452" d="M17.2835 29.3132L28.6723 17.0793H24.6931C22.1697 18.447 11.963 21.4178 7.69238 22.947V26.7763C7.69387 31.347 14.4641 32.3224 17.2835 29.3132Z" fill="#EEE3F8"/>
<path opacity="0.3482" d="M17.28 29.3024L28.6584 17.0793H24.6941C22.1662 18.447 11.961 21.4178 7.69336 22.947V26.7655C7.69336 31.3393 14.4606 32.3117 17.28 29.3024Z" fill="#EDE3F8"/>
<path opacity="0.3512" d="M17.276 29.2901L28.6441 17.0793H24.6931C22.1608 18.4455 11.9556 21.4178 7.69238 22.947V26.7532C7.69387 31.3317 14.4582 32.2994 17.276 29.2901Z" fill="#EDE2F7"/>
<path opacity="0.3542" d="M17.2716 29.2793L28.6292 17.0793H24.6931C22.1563 18.4455 11.9526 21.4163 7.69238 22.947V26.7424C7.69387 31.3224 14.4552 32.2886 17.2716 29.2793Z" fill="#EDE2F7"/>
<path opacity="0.3571" d="M17.2676 29.2668L28.6163 17.0791H24.6951C22.1538 18.4437 11.9516 21.416 7.69434 22.9468V26.7299C7.69285 31.3145 14.4527 32.276 17.2676 29.2668Z" fill="#EDE2F7"/>
<path opacity="0.3601" d="M17.2636 29.2563L28.6019 17.0793H24.6941C22.1484 18.444 11.9476 21.4163 7.69336 22.947V26.7193C7.69336 31.307 14.4502 32.2655 17.2636 29.2563Z" fill="#EDE1F7"/>
<path opacity="0.3631" d="M17.2592 29.2443L28.5871 17.0781H24.6941C22.1439 18.4412 11.9447 21.415 7.69336 22.9458V26.7058C7.69336 31.2997 14.4473 32.2535 17.2592 29.2443Z" fill="#ECE1F7"/>
<path opacity="0.3661" d="M17.2562 29.2332L28.5737 17.0793H24.6941C22.1395 18.4424 11.9417 21.4163 7.69336 22.947V26.6963C7.69336 31.2917 14.4443 32.2409 17.2562 29.2332Z" fill="#ECE1F7"/>
<path opacity="0.3691" d="M17.2517 29.2212L28.5588 17.0781H24.6941C22.135 18.4412 11.9387 21.415 7.69336 22.9458V26.6827C7.69336 31.2827 14.4428 32.2304 17.2517 29.2212Z" fill="#ECE0F7"/>
<path opacity="0.3721" d="M17.2478 29.2101L28.5444 17.0793H24.6931C22.1296 18.4409 11.9333 21.4163 7.69238 22.947V26.6732C7.69387 31.2747 14.4403 32.2178 17.2478 29.2101Z" fill="#ECE0F7"/>
<path opacity="0.3751" d="M17.2443 29.1981L28.5305 17.0781H24.6941C22.1261 18.4397 11.9313 21.4135 7.69336 22.9458V26.6597C7.69336 31.2674 14.4369 32.2074 17.2443 29.1981Z" fill="#EBE0F7"/>
<path opacity="0.3781" d="M17.2403 29.187L28.5162 17.0793H24.6931C22.1206 18.4393 11.9273 21.4147 7.69238 22.947V26.6501C7.69387 31.2593 14.4344 32.1947 17.2403 29.187Z" fill="#EBDFF7"/>
<path opacity="0.3811" d="M17.2369 29.1763L28.5023 17.0793H24.6941C22.1172 18.4393 11.9253 21.4147 7.69336 22.947V26.6378C7.69336 31.2517 14.4309 32.184 17.2369 29.1763Z" fill="#EBDFF7"/>
<path opacity="0.3841" d="M17.2324 29.164L28.4889 17.0793H24.6941C22.1127 18.4378 11.9224 21.4147 7.69336 22.947V26.6255C7.69336 31.2424 14.4294 32.1717 17.2324 29.164Z" fill="#EBDEF6"/>
<path opacity="0.387" d="M17.2279 29.1532L28.474 17.0793H24.6941C22.1082 18.4378 11.9194 21.4147 7.69336 22.947V26.6147C7.69336 31.2347 14.4264 32.1594 17.2279 29.1532Z" fill="#EBDEF6"/>
<path opacity="0.39" d="M17.225 29.1409L28.4606 17.0793H24.6941C22.1038 18.4378 11.9149 21.4147 7.69336 22.947V26.6024C7.69336 31.227 14.4235 32.1486 17.225 29.1409Z" fill="#EADEF6"/>
<path opacity="0.393" d="M17.2205 29.1301L28.4458 17.0793H24.6941C22.0993 18.4363 11.9119 21.4147 7.69336 22.947V26.5917C7.69336 31.2193 14.4205 32.1363 17.2205 29.1301Z" fill="#EADDF6"/>
<path opacity="0.396" d="M17.2165 29.1178L28.4314 17.0793H24.6931C22.0939 18.4363 11.908 21.4132 7.69238 22.947V26.5793C7.69387 31.2116 14.418 32.1255 17.2165 29.1178Z" fill="#EADDF6"/>
<path opacity="0.399" d="M17.2131 29.107L28.4175 17.0793H24.6941C22.0904 18.4347 11.906 21.4132 7.69336 22.947V26.5686C7.69336 31.2024 14.416 32.1132 17.2131 29.107Z" fill="#EADDF6"/>
<path opacity="0.402" d="M17.2091 29.095L28.4032 17.0781H24.6931C22.0849 18.4335 11.902 21.412 7.69238 22.9458V26.555C7.69387 31.195 14.4136 32.1027 17.2091 29.095Z" fill="#EADCF6"/>
<path opacity="0.405" d="M17.2046 29.084L28.3883 17.0793H24.6931C22.0805 18.4332 11.8991 21.4132 7.69238 22.947V26.5455C7.69387 31.187 14.4106 32.0901 17.2046 29.084Z" fill="#E9DCF6"/>
<path opacity="0.408" d="M17.2012 29.072L28.3744 17.0781H24.6941C22.077 18.432 11.8956 21.412 7.69336 22.9458V26.532C7.69336 31.1797 14.4071 32.0781 17.2012 29.072Z" fill="#E9DCF6"/>
<path opacity="0.411" d="M17.1967 29.0609L28.361 17.0793H24.6941C22.0725 18.4332 11.8926 21.4132 7.69336 22.947V26.5224C7.69336 31.1701 14.4041 32.067 17.1967 29.0609Z" fill="#E9DBF6"/>
<path opacity="0.414" d="M17.1932 29.0499L28.3471 17.0791H24.6951C22.069 18.4314 11.8906 21.4129 7.69434 22.9468V26.5099C7.69285 31.1622 14.4021 32.0545 17.1932 29.0499Z" fill="#E9DBF6"/>
<path opacity="0.4169" d="M17.1893 29.0378L28.3328 17.0793H24.6941C22.0636 18.4317 11.8867 21.4117 7.69336 22.947V26.4993C7.69336 31.1547 14.3997 32.044 17.1893 29.0378Z" fill="#E8DBF5"/>
<path opacity="0.4199" d="M17.1848 29.027L28.3179 17.0793H24.6941C22.0592 18.4301 11.8837 21.4117 7.69336 22.947V26.487C7.69336 31.147 14.3967 32.0317 17.1848 29.027Z" fill="#E8DAF5"/>
<path opacity="0.4229" d="M17.1818 29.0147L28.3045 17.0793H24.6941C22.0547 18.4301 11.8807 21.4117 7.69336 22.947V26.4763C7.69336 31.1393 14.3937 32.0209 17.1818 29.0147Z" fill="#E8DAF5"/>
<path opacity="0.4259" d="M17.1774 29.004L28.2896 17.0793H24.6941C22.0502 18.4286 11.8763 21.4117 7.69336 22.947V26.464C7.69336 31.1301 14.3922 32.0086 17.1774 29.004Z" fill="#E8DAF5"/>
<path opacity="0.4289" d="M17.1734 28.9917L28.2753 17.0793H24.6931C22.0448 18.4286 11.8723 21.4117 7.69238 22.947V26.4532C7.69387 31.1224 14.3898 31.9963 17.1734 28.9917Z" fill="#E8D9F5"/>
<path opacity="0.4319" d="M17.1699 28.9809L28.2614 17.0793H24.6941C22.0413 18.4286 11.8703 21.4117 7.69336 22.947V26.4409C7.69336 31.1147 14.3863 31.9855 17.1699 28.9809Z" fill="#E7D9F5"/>
<path opacity="0.4349" d="M17.166 28.9689L28.247 17.0781H24.6931C22.0359 18.4258 11.8664 21.4104 7.69238 22.9458V26.4289C7.69387 31.1074 14.3838 31.9735 17.166 28.9689Z" fill="#E7D9F5"/>
<path opacity="0.4379" d="M17.1615 28.9578L28.2322 17.0793H24.6931C22.0299 18.427 11.8634 21.4101 7.69238 22.947V26.4178C7.69387 31.0993 14.3809 31.9624 17.1615 28.9578Z" fill="#E7D8F5"/>
<path opacity="0.4409" d="M17.1581 28.9458L28.2198 17.0781H24.6941C22.0265 18.4243 11.8614 21.4089 7.69336 22.9458V26.4058C7.69336 31.0904 14.3789 31.9504 17.1581 28.9458Z" fill="#E7D8F5"/>
<path opacity="0.4439" d="M17.1536 28.9347L28.2049 17.0793H24.6941C22.022 18.4255 11.8584 21.4101 7.69336 22.947V26.3947C7.69336 31.0824 14.3759 31.9393 17.1536 28.9347Z" fill="#E7D8F5"/>
<path opacity="0.4468" d="M17.1496 28.9227L28.1905 17.0781H24.6931C22.0165 18.4227 11.853 21.4089 7.69238 22.9458V26.3812C7.69387 31.075 14.3734 31.9274 17.1496 28.9227Z" fill="#E6D7F5"/>
<path opacity="0.4498" d="M17.1461 28.9117L28.1766 17.0793H24.6941C22.0131 18.424 11.851 21.4101 7.69336 22.947V26.3717C7.69336 31.067 14.3699 31.9147 17.1461 28.9117Z" fill="#E6D7F5"/>
<path opacity="0.4528" d="M17.1417 28.9009L28.1618 17.0793H24.6941C22.0086 18.424 11.848 21.4101 7.69336 22.947V26.3593C7.69336 31.0593 14.367 31.904 17.1417 28.9009Z" fill="#E6D7F4"/>
<path opacity="0.4558" d="M17.1387 28.8886L28.1484 17.0793H24.6941C22.0041 18.4224 11.845 21.4101 7.69336 22.947V26.3486C7.69336 31.0501 14.3655 31.8917 17.1387 28.8886Z" fill="#E6D6F4"/>
<path opacity="0.4588" d="M17.1343 28.8778L28.1335 17.0793H24.6941C21.9997 18.4224 11.8421 21.4086 7.69336 22.947V26.3363C7.69336 31.0424 14.3625 31.8809 17.1343 28.8778Z" fill="#E5D6F4"/>
<path opacity="0.4618" d="M17.1303 28.8655L28.1192 17.0793H24.6931C21.9942 18.4209 11.8381 21.4086 7.69238 22.947V26.3255C7.69387 31.0347 14.36 31.8686 17.1303 28.8655Z" fill="#E5D6F4"/>
<path opacity="0.4648" d="M17.1268 28.8547L28.1053 17.0793H24.6941C21.9908 18.4209 11.8346 21.4086 7.69336 22.947V26.3132C7.69336 31.027 14.3566 31.8578 17.1268 28.8547Z" fill="#E5D5F4"/>
<path opacity="0.4678" d="M17.1224 28.8427L28.0919 17.0781H24.6941C21.9863 18.4181 11.8316 21.4074 7.69336 22.9458V26.3012C7.69336 31.0197 14.3551 31.8458 17.1224 28.8427Z" fill="#E5D5F4"/>
<path opacity="0.4708" d="M17.1179 28.8317L28.077 17.0793H24.6941C21.9818 18.4193 11.8287 21.4086 7.69336 22.947V26.2901C7.69336 31.0101 14.3521 31.8332 17.1179 28.8317Z" fill="#E5D5F4"/>
<path opacity="0.4738" d="M17.1149 28.8197L28.0636 17.0781H24.6941C21.9774 18.4166 11.8257 21.4074 7.69336 22.9458V26.2781C7.69336 31.0027 14.3491 31.8227 17.1149 28.8197Z" fill="#E4D4F4"/>
<path opacity="0.4767" d="M17.1105 28.8086L28.0487 17.0793H24.6941C21.9729 18.4178 11.8227 21.4086 7.69336 22.947V26.267C7.69336 30.9947 14.3461 31.8101 17.1105 28.8086Z" fill="#E4D4F4"/>
<path opacity="0.4797" d="M17.1065 28.7966L28.0344 17.0781H24.6931C21.9675 18.4166 11.8188 21.4058 7.69238 22.9458V26.255C7.69387 30.9874 14.3437 31.7997 17.1065 28.7966Z" fill="#E4D4F4"/>
<path opacity="0.4827" d="M17.103 28.7855L28.0205 17.0793H24.6941C21.964 18.4163 11.8153 21.407 7.69336 22.947V26.244C7.69336 30.9794 14.3417 31.787 17.103 28.7855Z" fill="#E4D3F4"/>
<path opacity="0.4857" d="M17.0991 28.7747L28.0061 17.0793H24.6931C21.9585 18.4163 11.8113 21.407 7.69238 22.947V26.2332C7.69387 30.9701 14.3392 31.7747 17.0991 28.7747Z" fill="#E4D3F3"/>
<path opacity="0.4887" d="M17.0956 28.7624L27.9922 17.0793H24.6941C21.9551 18.4147 11.8093 21.407 7.69336 22.947V26.2209C7.69336 30.9624 14.3357 31.764 17.0956 28.7624Z" fill="#E3D3F3"/>
<path opacity="0.4917" d="M17.0916 28.7516L27.9779 17.0793H24.6931C21.9496 18.4147 11.8054 21.407 7.69238 22.947V26.2101C7.69387 30.9547 14.3333 31.7516 17.0916 28.7516Z" fill="#E3D2F3"/>
<path opacity="0.4947" d="M17.0867 28.7393L27.964 17.0793H24.6941C21.9461 18.4132 11.8034 21.407 7.69336 22.947V26.1978C7.69336 30.947 14.3298 31.7409 17.0867 28.7393Z" fill="#E3D2F3"/>
<path opacity="0.4977" d="M17.0837 28.7286L27.9506 17.0793H24.6941C21.9417 18.4132 11.8004 21.407 7.69336 22.947V26.187C7.69336 30.9393 14.3283 31.7286 17.0837 28.7286Z" fill="#E3D1F3"/>
<path opacity="0.5007" d="M17.0792 28.7163L27.9357 17.0793H24.6941C21.9372 18.4132 11.796 21.4055 7.69336 22.947V26.1747C7.69336 30.9301 14.3253 31.7178 17.0792 28.7163Z" fill="#E3D1F3"/>
<path opacity="0.5037" d="M17.0748 28.7055L27.9209 17.0793H24.6941C21.9328 18.4117 11.793 21.4055 7.69336 22.947V26.164C7.69336 30.9224 14.3224 31.7055 17.0748 28.7055Z" fill="#E2D1F3"/>
<path opacity="0.5066" d="M17.0718 28.6935L27.9075 17.0781H24.6941C21.9283 18.4104 11.79 21.4043 7.69336 22.9458V26.1504C7.69336 30.9151 14.3194 31.6935 17.0718 28.6935Z" fill="#E2D0F3"/>
<path opacity="0.5096" d="M17.0673 28.6824L27.8926 17.0793H24.6941C21.9239 18.4101 11.787 21.4055 7.69336 22.947V26.1393C7.69336 30.907 14.3164 31.6824 17.0673 28.6824Z" fill="#E2D0F3"/>
<path opacity="0.5126" d="M17.0634 28.6704L27.8782 17.0781H24.6931C21.9184 18.4089 11.7831 21.4043 7.69238 22.9458V26.1274C7.69387 30.8981 14.3154 31.6704 17.0634 28.6704Z" fill="#E2D0F3"/>
<path opacity="0.5156" d="M17.0599 28.6593L27.8644 17.0793H24.6941C21.9149 18.4086 11.7811 21.4055 7.69336 22.947V26.1163C7.69336 30.8901 14.3119 31.6593 17.0599 28.6593Z" fill="#E1CFF3"/>
<path opacity="0.5186" d="M17.056 28.6474L27.85 17.0781H24.6931C21.9095 18.4074 11.7771 21.4043 7.69238 22.9458V26.1043C7.69387 30.8827 14.3095 31.6474 17.056 28.6474Z" fill="#E1CFF2"/>
<path opacity="0.5216" d="M17.0525 28.6363L27.8361 17.0793H24.6941C21.906 18.4086 11.7737 21.404 7.69336 22.947V26.0932C7.69336 30.8747 14.306 31.6363 17.0525 28.6363Z" fill="#E1CFF2"/>
<path opacity="0.5246" d="M17.048 28.6255L27.8227 17.0793H24.6941C21.9015 18.407 11.7707 21.404 7.69336 22.947V26.0824C7.69336 30.867 14.3045 31.624 17.048 28.6255Z" fill="#E1CEF2"/>
<path opacity="0.5276" d="M17.0435 28.6132L27.8079 17.0793H24.6941C21.8971 18.407 11.7677 21.404 7.69336 22.947V26.0701C7.69336 30.8578 14.3015 31.6117 17.0435 28.6132Z" fill="#E1CEF2"/>
<path opacity="0.5306" d="M17.0406 28.6024L27.7945 17.0793H24.6941C21.8926 18.4055 11.7647 21.404 7.69336 22.947V26.0593C7.69336 30.8501 14.2986 31.6009 17.0406 28.6024Z" fill="#E0CEF2"/>
<path opacity="0.5336" d="M17.0361 28.5901L27.7796 17.0793H24.6941C21.8882 18.4055 11.7618 21.404 7.69336 22.947V26.047C7.69336 30.8424 14.2956 31.5886 17.0361 28.5901Z" fill="#E0CDF2"/>
<path opacity="0.5365" d="M17.0322 28.5793L27.7653 17.0793H24.6931C21.8827 18.404 11.7578 21.404 7.69238 22.947V26.0363C7.69387 30.8347 14.2931 31.5778 17.0322 28.5793Z" fill="#E0CDF2"/>
<path opacity="0.5395" d="M17.0287 28.5674L27.7513 17.0781H24.6941C21.8792 18.4027 11.7543 21.4027 7.69336 22.9458V26.0227C7.69336 30.8274 14.2911 31.5658 17.0287 28.5674Z" fill="#E0CDF2"/>
<path opacity="0.5425" d="M17.0247 28.5563L27.737 17.0793H24.6931C21.8738 18.404 11.7504 21.4024 7.69238 22.947V26.0132C7.69387 30.8178 14.2887 31.5547 17.0247 28.5563Z" fill="#E0CCF2"/>
<path opacity="0.5455" d="M17.0203 28.5443L27.7221 17.0781H24.6931C21.8693 18.4012 11.7474 21.4012 7.69238 22.9458V25.9997C7.69387 30.8104 14.2857 31.5427 17.0203 28.5443Z" fill="#DFCCF2"/>
<path opacity="0.5485" d="M17.0173 28.5332L27.7087 17.0793H24.6931C21.8649 18.4024 11.7444 21.4024 7.69238 22.947V25.9901C7.69387 30.8024 14.2827 31.5301 17.0173 28.5332Z" fill="#DFCCF2"/>
<path opacity="0.5515" d="M17.0123 28.5212L27.6949 17.0781H24.6941C21.8614 18.3997 11.7424 21.4012 7.69336 22.9458V25.9766C7.69336 30.795 14.2792 31.5197 17.0123 28.5212Z" fill="#DFCBF1"/>
<path opacity="0.5545" d="M17.0088 28.5099L27.681 17.0791H24.6951C21.8579 18.4006 11.7404 21.4022 7.69434 22.9468V25.9668C7.69285 30.7868 14.2772 31.5068 17.0088 28.5099Z" fill="#DFCBF1"/>
<path opacity="0.5575" d="M17.0049 28.4993L27.6666 17.0793H24.6941C21.8525 18.3993 11.735 21.4024 7.69336 22.947V25.9547C7.69336 30.7778 14.2748 31.4963 17.0049 28.4993Z" fill="#DECBF1"/>
<path opacity="0.5605" d="M17.0004 28.487L27.6517 17.0793H24.6941C21.848 18.3993 11.732 21.4024 7.69336 22.947V25.944C7.69336 30.7701 14.2718 31.484 17.0004 28.487Z" fill="#DECAF1"/>
<path opacity="0.5635" d="M16.9974 28.4763L27.6383 17.0793H24.6941C21.8421 18.3993 11.729 21.4009 7.69336 22.947V25.9317C7.69336 30.7624 14.2688 31.4732 16.9974 28.4763Z" fill="#DECAF1"/>
<path opacity="0.5664" d="M16.993 28.464L27.6235 17.0793H24.6941C21.8376 18.3978 11.7261 21.4009 7.69336 22.947V25.9209C7.69336 30.7547 14.2659 31.4609 16.993 28.464Z" fill="#DECAF1"/>
<path opacity="0.5694" d="M16.989 28.4532L27.6091 17.0793H24.6931C21.8322 18.3978 11.7221 21.4009 7.69238 22.947V25.9086C7.69387 30.747 14.2649 31.4486 16.989 28.4532Z" fill="#DEC9F1"/>
<path opacity="0.5724" d="M16.9856 28.4409L27.5952 17.0793H24.6941C21.8287 18.3963 11.7201 21.4009 7.69336 22.947V25.8963C7.69336 30.7378 14.2614 31.4378 16.9856 28.4409Z" fill="#DDC9F1"/>
<path opacity="0.5754" d="M16.9816 28.4301L27.5809 17.0793H24.6931C21.8232 18.3963 11.7147 21.4009 7.69238 22.947V25.8855C7.69387 30.7301 14.2589 31.4255 16.9816 28.4301Z" fill="#DDC9F1"/>
<path opacity="0.5784" d="M16.9766 28.4181L27.567 17.0781H24.6941C21.8197 18.3935 11.7127 21.3997 7.69336 22.9458V25.872C7.69336 30.7227 14.2554 31.415 16.9766 28.4181Z" fill="#DDC8F1"/>
<path opacity="0.5814" d="M16.9737 28.407L27.5536 17.0793H24.6941C21.8153 18.3947 11.7097 21.4009 7.69336 22.947V25.8624C7.69336 30.7147 14.254 31.4024 16.9737 28.407Z" fill="#DDC8F1"/>
<path opacity="0.5844" d="M16.9692 28.3951L27.5387 17.0781H24.6941C21.8108 18.392 11.7067 21.3981 7.69336 22.9458V25.8489C7.69336 30.7074 14.251 31.392 16.9692 28.3951Z" fill="#DDC8F0"/>
<path opacity="0.5874" d="M16.9662 28.384L27.5253 17.0793H24.6941C21.8064 18.3932 11.7038 21.3993 7.69336 22.947V25.8393C7.69336 30.6978 14.248 31.3794 16.9662 28.384Z" fill="#DCC7F0"/>
<path opacity="0.5904" d="M16.9618 28.3732L27.5105 17.0793H24.6941C21.8019 18.3932 11.7008 21.3993 7.69336 22.947V25.827C7.69336 30.6901 14.245 31.367 16.9618 28.3732Z" fill="#DCC7F0"/>
<path opacity="0.5934" d="M16.9578 28.3609L27.4961 17.0793H24.6931C21.7965 18.3917 11.6968 21.3993 7.69238 22.947V25.8163C7.69387 30.6824 14.2426 31.3563 16.9578 28.3609Z" fill="#DCC7F0"/>
<path opacity="0.5963" d="M16.9543 28.3501L27.4822 17.0793H24.6941C21.793 18.3917 11.6934 21.3993 7.69336 22.947V25.804C7.69336 30.6747 14.2406 31.344 16.9543 28.3501Z" fill="#DCC6F0"/>
<path opacity="0.5993" d="M16.9504 28.3378L27.4679 17.0793H24.6931C21.7876 18.3901 11.6894 21.3993 7.69238 22.947V25.7932C7.69387 30.667 14.2381 31.3332 16.9504 28.3378Z" fill="#DBC6F0"/>
<path opacity="0.6023" d="M16.9459 28.327L27.453 17.0793H24.6931C21.7831 18.3901 11.6864 21.3993 7.69238 22.947V25.7809C7.69387 30.6578 14.2351 31.3209 16.9459 28.327Z" fill="#DBC6F0"/>
<path opacity="0.6053" d="M16.9419 28.3145L27.4401 17.0791H24.6951C21.7806 18.3883 11.6854 21.3976 7.69434 22.9468V25.7699C7.69285 30.6499 14.2311 31.3099 16.9419 28.3145Z" fill="#DBC5F0"/>
<path opacity="0.6083" d="M16.938 28.304L27.4257 17.0793H24.6941C21.7752 18.3886 11.6815 21.3978 7.69336 22.947V25.7578C7.69336 30.6424 14.2287 31.2978 16.938 28.304Z" fill="#DBC5F0"/>
<path opacity="0.6113" d="M16.9335 28.292L27.4108 17.0781H24.6941C21.7707 18.3874 11.6785 21.3966 7.69336 22.9458V25.7458C7.69336 30.635 14.2272 31.2858 16.9335 28.292Z" fill="#DBC4F0"/>
<path opacity="0.6143" d="M16.9305 28.2809L27.3974 17.0793H24.6941C21.7662 18.387 11.674 21.3978 7.69336 22.947V25.7347C7.69336 30.627 14.2242 31.2747 16.9305 28.2809Z" fill="#DAC4F0"/>
<path opacity="0.6173" d="M16.9261 28.2689L27.3826 17.0781H24.6941C21.7618 18.3858 11.6711 21.3966 7.69336 22.9458V25.7227C7.69336 30.6181 14.2212 31.2627 16.9261 28.2689Z" fill="#DAC4EF"/>
<path opacity="0.6203" d="M16.9221 28.2578L27.3682 17.0793H24.6931C21.7563 18.3855 11.6671 21.3978 7.69238 22.947V25.7117C7.69387 30.6101 14.2188 31.2516 16.9221 28.2578Z" fill="#DAC3EF"/>
<path opacity="0.6233" d="M16.9186 28.2458L27.3543 17.0781H24.6941C21.7528 18.3843 11.6651 21.3966 7.69336 22.9458V25.6997C7.69336 30.6027 14.2168 31.2397 16.9186 28.2458Z" fill="#DAC3EF"/>
<path opacity="0.6262" d="M16.9147 28.2347L27.34 17.0793H24.6931C21.7474 18.384 11.6612 21.3963 7.69238 22.947V25.6886C7.69387 30.5947 14.2143 31.227 16.9147 28.2347Z" fill="#DAC3EF"/>
<path opacity="0.6292" d="M16.9112 28.224L27.3261 17.0793H24.6941C21.7439 18.384 11.6592 21.3963 7.69336 22.947V25.6778C7.69336 30.5855 14.2108 31.2163 16.9112 28.224Z" fill="#D9C2EF"/>
<path opacity="0.6322" d="M16.9073 28.2117L27.3117 17.0793H24.6931C21.7385 18.384 11.6537 21.3963 7.69238 22.947V25.6655C7.69387 30.5778 14.2084 31.204 16.9073 28.2117Z" fill="#D9C2EF"/>
<path opacity="0.6352" d="M16.9023 28.2009L27.2978 17.0793H24.6941C21.735 18.3824 11.6517 21.3963 7.69336 22.947V25.6532C7.69336 30.5701 14.2049 31.1932 16.9023 28.2009Z" fill="#D9C2EF"/>
<path opacity="0.6382" d="M16.8993 28.1886L27.2844 17.0793H24.6941C21.7305 18.3824 11.6487 21.3963 7.69336 22.947V25.6424C7.69336 30.5624 14.2034 31.1809 16.8993 28.1886Z" fill="#D9C1EF"/>
<path opacity="0.6412" d="M16.8948 28.1778L27.2696 17.0793H24.6941C21.7261 18.3809 11.6458 21.3963 7.69336 22.947V25.6301C7.69336 30.5547 14.2004 31.1701 16.8948 28.1778Z" fill="#D9C1EF"/>
<path opacity="0.6442" d="M16.8909 28.1658L27.2552 17.0781H24.6931C21.7206 18.3797 11.6418 21.3935 7.69238 22.9458V25.6181C7.69387 30.5458 14.198 31.1581 16.8909 28.1658Z" fill="#D8C1EF"/>
<path opacity="0.6472" d="M16.8874 28.1547L27.2413 17.0793H24.6941C21.7172 18.3793 11.6398 21.3947 7.69336 22.947V25.607C7.69336 30.5378 14.1945 31.1455 16.8874 28.1547Z" fill="#D8C0EF"/>
<path opacity="0.6502" d="M16.883 28.1427L27.2264 17.0781H24.6941C21.7127 18.3781 11.6354 21.3935 7.69336 22.9458V25.595C7.69336 30.5304 14.1915 31.135 16.883 28.1427Z" fill="#D8C0EE"/>
<path opacity="0.6532" d="M16.879 28.1317L27.2121 17.0793H24.6931C21.7073 18.3793 11.6314 21.3947 7.69238 22.947V25.584C7.69387 30.5224 14.1905 31.1224 16.879 28.1317Z" fill="#D8C0EE"/>
<path opacity="0.6561" d="M16.8755 28.1197L27.1982 17.0781H24.6941C21.7038 18.3766 11.6294 21.3935 7.69336 22.9458V25.572C7.69336 30.515 14.187 31.112 16.8755 28.1197Z" fill="#D7BFEE"/>
<path opacity="0.6591" d="M16.8716 28.1086L27.1838 17.0793H24.6931C21.6983 18.3778 11.6255 21.3947 7.69238 22.947V25.5609C7.69387 30.5055 14.1846 31.0993 16.8716 28.1086Z" fill="#D7BFEE"/>
<path opacity="0.6621" d="M16.8676 28.0976L27.1709 17.0791H24.6951C21.6958 18.376 11.6244 21.3945 7.69434 22.9468V25.5499C7.69285 30.4976 14.1806 31.0883 16.8676 28.0976Z" fill="#D7BFEE"/>
<path opacity="0.6651" d="M16.8636 28.0855L27.1566 17.0793H24.6941C21.6904 18.3763 11.6205 21.3932 7.69336 22.947V25.5378C7.69336 30.4901 14.1781 31.0763 16.8636 28.0855Z" fill="#D7BEEE"/>
<path opacity="0.6681" d="M16.8592 28.0747L27.1417 17.0793H24.6941C21.6859 18.3747 11.616 21.3932 7.69336 22.947V25.527C7.69336 30.4824 14.1766 31.064 16.8592 28.0747Z" fill="#D7BEEE"/>
<path opacity="0.6711" d="M16.8562 28.0624L27.1283 17.0793H24.6941C21.6815 18.3747 11.6131 21.3932 7.69336 22.947V25.5147C7.69336 30.4747 14.1737 31.0532 16.8562 28.0624Z" fill="#D6BEEE"/>
<path opacity="0.6741" d="M16.8517 28.0517L27.1134 17.0793H24.6941C21.677 18.3747 11.6101 21.3932 7.69336 22.947V25.504C7.69336 30.4655 14.1707 31.0409 16.8517 28.0517Z" fill="#D6BDEE"/>
<path opacity="0.6771" d="M16.8478 28.0393L27.0991 17.0793H24.6931C21.6716 18.3732 11.6061 21.3932 7.69238 22.947V25.4917C7.69387 30.4578 14.1682 31.0301 16.8478 28.0393Z" fill="#D6BDEE"/>
<path opacity="0.6801" d="M16.8443 28.0286L27.0852 17.0793H24.6941C21.6681 18.3732 11.6041 21.3932 7.69336 22.947V25.4809C7.69336 30.4501 14.1662 31.0178 16.8443 28.0286Z" fill="#D6BDEE"/>
<path opacity="0.6831" d="M16.8403 28.0166L27.0708 17.0781H24.6931C21.6626 18.3704 11.6002 21.392 7.69238 22.9458V25.4674C7.69387 30.4427 14.1638 31.0074 16.8403 28.0166Z" fill="#D6BCEE"/>
<path opacity="0.686" d="M16.8359 28.0055L27.0559 17.0793H24.6931C21.6567 18.3717 11.5972 21.3917 7.69238 22.947V25.4578C7.69387 30.4347 14.1608 30.9947 16.8359 28.0055Z" fill="#D5BCED"/>
<path opacity="0.689" d="M16.8324 27.9935L27.0436 17.0781H24.6941C21.6532 18.3689 11.5937 21.3904 7.69336 22.9458V25.4443C7.69336 30.4258 14.1573 30.9827 16.8324 27.9935Z" fill="#D5BCED"/>
<path opacity="0.692" d="M16.8279 27.9824L27.0287 17.0793H24.6941C21.6487 18.3701 11.5908 21.3917 7.69336 22.947V25.4347C7.69336 30.4178 14.1543 30.9717 16.8279 27.9824Z" fill="#D5BBED"/>
<path opacity="0.695" d="M16.825 27.9717L27.0153 17.0793H24.6941C21.6443 18.3686 11.5878 21.3917 7.69336 22.947V25.4224C7.69336 30.4101 14.1528 30.9593 16.825 27.9717Z" fill="#D5BBED"/>
<path opacity="0.698" d="M16.8205 27.9593L27.0004 17.0793H24.6941C21.6398 18.3686 11.5848 21.3917 7.69336 22.947V25.4101C7.69336 30.4024 14.1499 30.9486 16.8205 27.9593Z" fill="#D4BBED"/>
<path opacity="0.701" d="M16.816 27.9486L26.9856 17.0793H24.6941C21.6354 18.3686 11.5818 21.3917 7.69336 22.947V25.3993C7.69336 30.3947 14.1469 30.9363 16.816 27.9486Z" fill="#D4BAED"/>
<path opacity="0.704" d="M16.8131 27.9363L26.9722 17.0793H24.6941C21.6309 18.367 11.5789 21.3917 7.69336 22.947V25.387C7.69336 30.3855 14.1439 30.9255 16.8131 27.9363Z" fill="#D4BAED"/>
<path opacity="0.707" d="M16.8086 27.9255L26.9573 17.0793H24.6941C21.6264 18.367 11.5744 21.3901 7.69336 22.947V25.3763C7.69336 30.3778 14.1409 30.9132 16.8086 27.9255Z" fill="#D4BAED"/>
<path opacity="0.71" d="M16.8047 27.9132L26.9429 17.0793H24.6931C21.621 18.3655 11.5705 21.3901 7.69238 22.947V25.364C7.69387 30.3701 14.14 30.9009 16.8047 27.9132Z" fill="#D4B9ED"/>
<path opacity="0.713" d="M16.8012 27.9024L26.929 17.0793H24.6941C21.6175 18.3655 11.5685 21.3901 7.69336 22.947V25.3532C7.69336 30.3624 14.1365 30.8901 16.8012 27.9024Z" fill="#D3B9ED"/>
<path opacity="0.7159" d="M16.7972 27.8904L26.9147 17.0781H24.6931C21.6121 18.3627 11.5645 21.3889 7.69238 22.9458V25.3397C7.69387 30.3551 14.134 30.8781 16.7972 27.8904Z" fill="#D3B9ED"/>
<path opacity="0.7189" d="M16.7922 27.8793L26.9008 17.0793H24.6941C21.6086 18.364 11.5625 21.3901 7.69336 22.947V25.3301C7.69336 30.3455 14.1305 30.867 16.7922 27.8793Z" fill="#D3B8EC"/>
<path opacity="0.7219" d="M16.7893 27.8674L26.8874 17.0781H24.6941C21.6041 18.3627 11.5595 21.3889 7.69336 22.9458V25.3166C7.69336 30.3381 14.1276 30.8551 16.7893 27.8674Z" fill="#D3B8EC"/>
<path opacity="0.7249" d="M16.7848 27.8563L26.8725 17.0793H24.6941C21.5997 18.3624 11.5551 21.3901 7.69336 22.947V25.307C7.69336 30.3301 14.1261 30.844 16.7848 27.8563Z" fill="#D3B7EC"/>
<path opacity="0.7279" d="M16.7818 27.8443L26.8592 17.0781H24.6941C21.5952 18.3612 11.5521 21.3874 7.69336 22.9458V25.2935C7.69336 30.3227 14.1231 30.832 16.7818 27.8443Z" fill="#D2B7EC"/>
<path opacity="0.7309" d="M16.7774 27.8332L26.8443 17.0793H24.6941C21.5908 18.3609 11.5491 21.3886 7.69336 22.947V25.284C7.69336 30.3147 14.1201 30.8194 16.7774 27.8332Z" fill="#D2B7EC"/>
<path opacity="0.7339" d="M16.7734 27.8224L26.8299 17.0793H24.6931C21.5853 18.3609 11.5452 21.3886 7.69238 22.947V25.2717C7.69387 30.3055 14.1177 30.8086 16.7734 27.8224Z" fill="#D2B6EC"/>
<path opacity="0.7369" d="M16.7699 27.8101L26.816 17.0793H24.6941C21.5818 18.3593 11.5432 21.3886 7.69336 22.947V25.2609C7.69336 30.2978 14.1157 30.7963 16.7699 27.8101Z" fill="#D2B6EC"/>
<path opacity="0.7399" d="M16.766 27.7993L26.8017 17.0793H24.6931C21.5764 18.3593 11.5392 21.3886 7.69238 22.947V25.2486C7.69387 30.2901 14.1132 30.7855 16.766 27.7993Z" fill="#D1B6EC"/>
<path opacity="0.7429" d="M16.7615 27.787L26.7868 17.0793H24.6931C21.5719 18.3593 11.5348 21.3886 7.69238 22.947V25.2378C7.69387 30.2824 14.1102 30.7732 16.7615 27.787Z" fill="#D1B5EC"/>
<path opacity="0.7458" d="M16.758 27.7763L26.7744 17.0793H24.6941C21.5684 18.3578 11.5328 21.3886 7.69336 22.947V25.2255C7.69336 30.2732 14.1067 30.7609 16.758 27.7763Z" fill="#D1B5EC"/>
<path opacity="0.7488" d="M16.7536 27.7643L26.7595 17.0781H24.6941C21.564 18.3566 11.5298 21.3858 7.69336 22.9458V25.2135C7.69336 30.2658 14.1038 30.7504 16.7536 27.7643Z" fill="#D1B5EC"/>
<path opacity="0.7518" d="M16.7491 27.7532L26.7447 17.0793H24.6941C21.5595 18.3563 11.5268 21.387 7.69336 22.947V25.2024C7.69336 30.2578 14.1023 30.7378 16.7491 27.7532Z" fill="#D1B4EB"/>
<path opacity="0.7548" d="M16.7461 27.7412L26.7313 17.0781H24.6941C21.5551 18.355 11.5238 21.3858 7.69336 22.9458V25.1904C7.69336 30.2504 14.0993 30.7274 16.7461 27.7412Z" fill="#D0B4EB"/>
<path opacity="0.7578" d="M16.7417 27.7301L26.7164 17.0793H24.6941C21.5506 18.3547 11.5209 21.387 7.69336 22.947V25.1793C7.69336 30.2424 14.0963 30.7147 16.7417 27.7301Z" fill="#D0B4EB"/>
<path opacity="0.7608" d="M16.7387 27.7181L26.703 17.0781H24.6941C21.5461 18.3535 11.5179 21.3858 7.69336 22.9458V25.1658C7.69336 30.2335 14.0934 30.7043 16.7387 27.7181Z" fill="#D0B3EB"/>
<path opacity="0.7638" d="M16.7343 27.707L26.6882 17.0793H24.6941C21.5417 18.3547 11.5134 21.387 7.69336 22.947V25.1563C7.69336 30.2255 14.0904 30.6916 16.7343 27.707Z" fill="#D0B3EB"/>
<path opacity="0.7668" d="M16.7303 27.6963L26.6738 17.0793H24.6931C21.5362 18.3532 11.5095 21.387 7.69238 22.947V25.144C7.69387 30.2178 14.0894 30.6794 16.7303 27.6963Z" fill="#D0B3EB"/>
<path opacity="0.7698" d="M16.7268 27.684L26.6599 17.0793H24.6941C21.5328 18.3532 11.5075 21.3855 7.69336 22.947V25.1332C7.69336 30.2101 14.0859 30.6686 16.7268 27.684Z" fill="#CFB2EB"/>
<path opacity="0.7728" d="M16.7224 27.6732L26.6465 17.0793H24.6941C21.5283 18.3517 11.5045 21.3855 7.69336 22.947V25.1209C7.69336 30.2024 14.0829 30.6563 16.7224 27.6732Z" fill="#CFB2EB"/>
<path opacity="0.7757" d="M16.7179 27.6609L26.6316 17.0793H24.6941C21.5238 18.3517 11.5015 21.3855 7.69336 22.947V25.1101C7.69336 30.1932 14.08 30.6455 16.7179 27.6609Z" fill="#CFB2EB"/>
<path opacity="0.7787" d="M16.7149 27.6501L26.6183 17.0793H24.6941C21.5194 18.3501 11.4986 21.3855 7.69336 22.947V25.0978C7.69336 30.1855 14.0785 30.6332 16.7149 27.6501Z" fill="#CFB1EB"/>
<path opacity="0.7817" d="M16.7105 27.6378L26.6034 17.0793H24.6941C21.5149 18.3501 11.4941 21.3855 7.69336 22.947V25.087C7.69336 30.1778 14.0755 30.6224 16.7105 27.6378Z" fill="#CFB1EB"/>
<path opacity="0.7847" d="M16.7065 27.627L26.589 17.0793H24.6931C21.5095 18.3501 11.4902 21.3855 7.69238 22.947V25.0747C7.69387 30.1701 14.073 30.6101 16.7065 27.627Z" fill="#CEB1EA"/>
<path opacity="0.7877" d="M16.703 27.6151L26.5751 17.0781H24.6941C21.506 18.3474 11.4882 21.3843 7.69336 22.9458V25.0627C7.69336 30.1627 14.0696 30.5981 16.703 27.6151Z" fill="#CEB0EA"/>
<path opacity="0.7907" d="M16.6991 27.604L26.5608 17.0793H24.6931C21.5006 18.3486 11.4842 21.384 7.69238 22.947V25.0517C7.69387 30.1532 14.0671 30.587 16.6991 27.604Z" fill="#CEB0EA"/>
<path opacity="0.7937" d="M16.6946 27.592L26.5459 17.0781H24.6931C21.4961 18.3458 11.4812 21.3827 7.69238 22.9458V25.0397C7.69387 30.1458 14.0656 30.575 16.6946 27.592Z" fill="#CEB0EA"/>
<path opacity="0.7967" d="M16.6916 27.5809L26.5325 17.0793H24.6931C21.4916 18.347 11.4783 21.384 7.69238 22.947V25.0286C7.69387 30.1378 14.0626 30.564 16.6916 27.5809Z" fill="#CDAFEA"/>
<path opacity="0.7997" d="M16.6867 27.5689L26.5186 17.0781H24.6941C21.4882 18.3443 11.4748 21.3827 7.69336 22.9458V25.0166C7.69336 30.1304 14.0592 30.552 16.6867 27.5689Z" fill="#CDAFEA"/>
<path opacity="0.8027" d="M16.6832 27.5576L26.5047 17.0791H24.6951C21.4847 18.3453 11.4728 21.3837 7.69434 22.9468V25.0053C7.69285 30.1222 14.0557 30.5406 16.6832 27.5576Z" fill="#CDAFEA"/>
<path opacity="0.8056" d="M16.6792 27.547L26.4904 17.0793H24.6941C21.4792 18.3455 11.4688 21.384 7.69336 22.947V24.9947C7.69336 30.1132 14.0532 30.5286 16.6792 27.547Z" fill="#CDAEEA"/>
<path opacity="0.8086" d="M16.6748 27.5347L26.4755 17.0793H24.6941C21.4748 18.344 11.4659 21.384 7.69336 22.947V24.9824C7.69336 30.1055 14.0517 30.5163 16.6748 27.5347Z" fill="#CDAEEA"/>
<path opacity="0.8116" d="M16.6718 27.524L26.4621 17.0793H24.6941C21.4688 18.344 11.4629 21.3824 7.69336 22.947V24.9717C7.69336 30.0978 14.0487 30.5055 16.6718 27.524Z" fill="#CCAEEA"/>
<path opacity="0.8146" d="M16.6673 27.5117L26.4473 17.0793H24.6941C21.4644 18.3424 11.4599 21.3824 7.69336 22.947V24.9593C7.69336 30.0901 14.0458 30.4932 16.6673 27.5117Z" fill="#CCADEA"/>
<path opacity="0.8176" d="M16.6634 27.5009L26.4329 17.0793H24.6931C21.4589 18.3424 11.4545 21.3824 7.69238 22.947V24.9486C7.69387 30.0824 14.0433 30.4824 16.6634 27.5009Z" fill="#CCADE9"/>
<path opacity="0.8206" d="M16.6599 27.4889L26.419 17.0781H24.6941C21.4554 18.3397 11.4525 21.3812 7.69336 22.9458V24.935C7.69336 30.0735 14.0398 30.4704 16.6599 27.4889Z" fill="#CCADE9"/>
<path opacity="0.8236" d="M16.656 27.4778L26.4046 17.0793H24.6931C21.45 18.3409 11.4485 21.3824 7.69238 22.947V24.9255C7.69387 30.0655 14.0389 30.4594 16.656 27.4778Z" fill="#CCACE9"/>
<path opacity="0.8266" d="M16.6515 27.4658L26.3898 17.0781H24.6931C21.4455 18.3381 11.4455 21.3812 7.69238 22.9458V24.912C7.69387 30.0581 14.0359 30.4474 16.6515 27.4658Z" fill="#CBACE9"/>
<path opacity="0.8296" d="M16.648 27.4547L26.3774 17.0793H24.6941C21.4421 18.3393 11.4435 21.3824 7.69336 22.947V24.9009C7.69336 30.0501 14.0324 30.4347 16.648 27.4547Z" fill="#CBACE9"/>
<path opacity="0.8326" d="M16.6435 27.4427L26.3625 17.0781H24.6941C21.4376 18.3381 11.4406 21.3797 7.69336 22.9458V24.8889C7.69336 30.0427 14.0294 30.4243 16.6435 27.4427Z" fill="#CBABE9"/>
<path opacity="0.8355" d="M16.6406 27.4317L26.3491 17.0793H24.6941C21.4331 18.3378 11.4376 21.3809 7.69336 22.947V24.8778C7.69336 30.0332 14.0279 30.4117 16.6406 27.4317Z" fill="#CBABE9"/>
<path opacity="0.8385" d="M16.6361 27.4209L26.3343 17.0793H24.6941C21.4287 18.3378 11.4331 21.3809 7.69336 22.947V24.867C7.69336 30.0255 14.025 30.4009 16.6361 27.4209Z" fill="#CAAAE9"/>
<path opacity="0.8415" d="M16.6322 27.4086L26.3199 17.0793H24.6931C21.4232 18.3363 11.4292 21.3809 7.69238 22.947V24.8547C7.69387 30.0178 14.0225 30.3886 16.6322 27.4086Z" fill="#CAAAE9"/>
<path opacity="0.8445" d="M16.6287 27.3978L26.306 17.0793H24.6941C21.4198 18.3363 11.4272 21.3809 7.69336 22.947V24.844C7.69336 30.0101 14.019 30.3778 16.6287 27.3978Z" fill="#CAAAE9"/>
<path opacity="0.8475" d="M16.6247 27.3855L26.2916 17.0793H24.6931C21.4143 18.3347 11.4232 21.3809 7.69238 22.947V24.8317C7.69387 30.0024 14.0165 30.3655 16.6247 27.3855Z" fill="#CAA9E9"/>
<path opacity="0.8505" d="M16.6203 27.3747L26.2768 17.0793H24.6931C21.4099 18.3347 11.4203 21.3809 7.69238 22.947V24.8209C7.69387 29.9932 14.0151 30.3532 16.6203 27.3747Z" fill="#CAA9E8"/>
<path opacity="0.8535" d="M16.6168 27.3627L26.2629 17.0781H24.6941C21.4064 18.3335 11.4183 21.3781 7.69336 22.9458V24.8074C7.69336 29.9858 14.0116 30.3427 16.6168 27.3627Z" fill="#C9A9E8"/>
<path opacity="0.8565" d="M16.6123 27.3517L26.2495 17.0793H24.6941C21.4019 18.3332 11.4138 21.3793 7.69336 22.947V24.7978C7.69336 29.9778 14.0086 30.3301 16.6123 27.3517Z" fill="#C9A8E8"/>
<path opacity="0.8595" d="M16.6079 27.3397L26.2346 17.0781H24.6941C21.3974 18.332 11.4108 21.3781 7.69336 22.9458V24.7843C7.69336 29.9704 14.0056 30.3197 16.6079 27.3397Z" fill="#C9A8E8"/>
<path opacity="0.8625" d="M16.6049 27.3286L26.2212 17.0793H24.6941C21.393 18.3317 11.4079 21.3793 7.69336 22.947V24.7747C7.69336 29.9624 14.0027 30.307 16.6049 27.3286Z" fill="#C9A8E8"/>
<path opacity="0.8654" d="M16.6004 27.3166L26.2064 17.0781H24.6941C21.3885 18.3304 11.4049 21.3781 7.69336 22.9458V24.7612C7.69336 29.9535 14.0012 30.2966 16.6004 27.3166Z" fill="#C9A7E8"/>
<path opacity="0.8684" d="M16.5974 27.3055L26.193 17.0793H24.6941C21.3841 18.3301 11.4019 21.3793 7.69336 22.947V24.7517C7.69336 29.9455 13.9982 30.284 16.5974 27.3055Z" fill="#C8A7E8"/>
<path opacity="0.8714" d="M16.593 27.2947L26.1781 17.0793H24.6941C21.3796 18.3301 11.3989 21.3793 7.69336 22.947V24.7393C7.69336 29.9378 13.9952 30.2717 16.593 27.2947Z" fill="#C8A7E8"/>
<path opacity="0.8744" d="M16.589 27.2824L26.1638 17.0793H24.6931C21.3742 18.3301 11.3935 21.3778 7.69238 22.947V24.7286C7.69387 29.9301 13.9928 30.2609 16.589 27.2824Z" fill="#C8A6E8"/>
<path opacity="0.8774" d="M16.5856 27.2717L26.1499 17.0793H24.6941C21.3707 18.3286 11.3915 21.3778 7.69336 22.947V24.7163C7.69336 29.9209 13.9893 30.2486 16.5856 27.2717Z" fill="#C8A6E8"/>
<path opacity="0.8804" d="M16.5816 27.2593L26.1355 17.0793H24.6931C21.3653 18.3286 11.3876 21.3778 7.69238 22.947V24.7055C7.69387 29.9132 13.9883 30.2378 16.5816 27.2593Z" fill="#C8A6E8"/>
<path opacity="0.8834" d="M16.5766 27.2486L26.1216 17.0793H24.6941C21.3618 18.327 11.3856 21.3778 7.69336 22.947V24.6932C7.69336 29.9055 13.9848 30.2255 16.5766 27.2486Z" fill="#C7A5E7"/>
<path opacity="0.8864" d="M16.5737 27.2363L26.1082 17.0793H24.6941C21.3573 18.327 11.3826 21.3778 7.69336 22.947V24.6824C7.69336 29.8978 13.9818 30.2132 16.5737 27.2363Z" fill="#C7A5E7"/>
<path opacity="0.8894" d="M16.5692 27.2255L26.0934 17.0793H24.6941C21.3528 18.3255 11.3796 21.3778 7.69336 22.947V24.6701C7.69336 29.8901 13.9789 30.2024 16.5692 27.2255Z" fill="#C7A5E7"/>
<path opacity="0.8924" d="M16.5652 27.2135L26.079 17.0781H24.6931C21.3474 18.3243 11.3742 21.3766 7.69238 22.9458V24.6597C7.69387 29.8812 13.9779 30.1904 16.5652 27.2135Z" fill="#C7A4E7"/>
<path opacity="0.8953" d="M16.5618 27.2024L26.0651 17.0793H24.6941C21.3439 18.3255 11.3722 21.3763 7.69336 22.947V24.647C7.69336 29.8732 13.9744 30.1793 16.5618 27.2024Z" fill="#C6A4E7"/>
<path opacity="0.8983" d="M16.5573 27.1904L26.0502 17.0781H24.6941C21.3395 18.3227 11.3692 21.375 7.69336 22.9458V24.6335C7.69336 29.8658 13.9714 30.1674 16.5573 27.1904Z" fill="#C6A4E7"/>
<path opacity="0.9013" d="M16.5543 27.1793L26.0369 17.0793H24.6941C21.335 18.324 11.3662 21.3763 7.69336 22.947V24.624C7.69336 29.8578 13.9685 30.1563 16.5543 27.1793Z" fill="#C6A3E7"/>
<path opacity="0.9043" d="M16.5499 27.1674L26.022 17.0781H24.6941C21.3305 18.3212 11.3632 21.375 7.69336 22.9458V24.6104C7.69336 29.8504 13.9655 30.1443 16.5499 27.1674Z" fill="#C6A3E7"/>
<path opacity="0.9073" d="M16.5459 27.1563L26.0076 17.0793H24.6931C21.3251 18.3224 11.3593 21.3763 7.69238 22.947V24.6009C7.69387 29.8409 13.9645 30.1317 16.5459 27.1563Z" fill="#C6A3E7"/>
<path opacity="0.9103" d="M16.5419 27.1453L25.9947 17.0791H24.6951C21.3226 18.3206 11.3583 21.376 7.69434 22.9468V24.5883C7.69285 29.833 13.9605 30.1206 16.5419 27.1453Z" fill="#C5A2E7"/>
<path opacity="0.9133" d="M16.538 27.1332L25.9803 17.0793H24.6941C21.3171 18.3209 11.3528 21.3763 7.69336 22.947V24.5778C7.69336 29.8255 13.958 30.1086 16.538 27.1332Z" fill="#C5A2E7"/>
<path opacity="0.9163" d="M16.5335 27.1224L25.9655 17.0793H24.6941C21.3127 18.3209 11.3499 21.3747 7.69336 22.947V24.5655C7.69336 29.8178 13.9551 30.0978 16.5335 27.1224Z" fill="#C5A2E7"/>
<path opacity="0.9193" d="M16.5305 27.1101L25.9521 17.0793H24.6941C21.3082 18.3193 11.3469 21.3747 7.69336 22.947V24.5547C7.69336 29.8101 13.9521 30.0855 16.5305 27.1101Z" fill="#C5A1E6"/>
<path opacity="0.9223" d="M16.5261 27.0993L25.9372 17.0793H24.6941C21.3038 18.3193 11.3439 21.3747 7.69336 22.947V24.5424C7.69336 29.8009 13.9506 30.0747 16.5261 27.0993Z" fill="#C5A1E6"/>
<path opacity="0.9252" d="M16.5221 27.0874L25.9229 17.0781H24.6931C21.2983 18.3166 11.34 21.3735 7.69238 22.9458V24.5304C7.69387 29.7935 13.9481 30.0627 16.5221 27.0874Z" fill="#C4A1E6"/>
<path opacity="0.9282" d="M16.5186 27.0763L25.909 17.0793H24.6941C21.2948 18.3178 11.338 21.3747 7.69336 22.947V24.5193C7.69336 29.7855 13.9447 30.0501 16.5186 27.0763Z" fill="#C4A0E6"/>
<path opacity="0.9312" d="M16.5147 27.0643L25.8946 17.0781H24.6931C21.2894 18.315 11.3325 21.3735 7.69238 22.9458V24.5074C7.69387 29.7781 13.9422 30.0397 16.5147 27.0643Z" fill="#C4A0E6"/>
<path opacity="0.9342" d="M16.5112 27.0532L25.8807 17.0793H24.6941C21.2844 18.3163 11.3305 21.3747 7.69336 22.947V24.4963C7.69336 29.7701 13.9402 30.027 16.5112 27.0532Z" fill="#C4A0E6"/>
<path opacity="0.9372" d="M16.5073 27.0412L25.8664 17.0781H24.6931C21.279 18.315 11.3266 21.372 7.69238 22.9458V24.4843C7.69387 29.7612 13.9377 30.0166 16.5073 27.0412Z" fill="#C39FE6"/>
<path opacity="0.9402" d="M16.5023 27.0301L25.8525 17.0793H24.6941C21.2755 18.3147 11.3246 21.3732 7.69336 22.947V24.4732C7.69336 29.7532 13.9343 30.004 16.5023 27.0301Z" fill="#C39FE6"/>
<path opacity="0.9432" d="M16.4993 27.0193L25.8391 17.0793H24.6941C21.2711 18.3147 11.3216 21.3732 7.69336 22.947V24.4624C7.69336 29.7455 13.9313 29.9932 16.4993 27.0193Z" fill="#C39FE6"/>
<path opacity="0.9462" d="M16.4948 27.007L25.8242 17.0793H24.6941C21.2666 18.3132 11.3186 21.3732 7.69336 22.947V24.4501C7.69336 29.7378 13.9283 29.9809 16.4948 27.007Z" fill="#C39EE6"/>
<path opacity="0.9492" d="M16.4904 26.9963L25.8094 17.0793H24.6941C21.2621 18.3132 11.3142 21.3732 7.69336 22.947V24.4394C7.69336 29.7301 13.9268 29.9686 16.4904 26.9963Z" fill="#C39EE6"/>
<path opacity="0.9522" d="M16.4874 26.984L25.796 17.0793H24.6941C21.2577 18.3117 11.3112 21.3732 7.69336 22.947V24.427C7.69336 29.7209 13.9238 29.9578 16.4874 26.984Z" fill="#C29DE5"/>
<path opacity="0.9552" d="M16.483 26.9732L25.7811 17.0793H24.6941C21.2532 18.3117 11.3082 21.3732 7.69336 22.947V24.4147C7.69336 29.7132 13.9209 29.9455 16.483 26.9732Z" fill="#C29DE5"/>
<path opacity="0.9581" d="M16.479 26.9609L25.7667 17.0793H24.6931C21.2478 18.3101 11.3043 21.3717 7.69238 22.947V24.404C7.69387 29.7055 13.9184 29.9347 16.479 26.9609Z" fill="#C29DE5"/>
<path opacity="0.9611" d="M16.4755 26.9501L25.7528 17.0793H24.6941C21.2443 18.3101 11.3023 21.3717 7.69336 22.947V24.3917C7.69336 29.6978 13.9149 29.9224 16.4755 26.9501Z" fill="#C29CE5"/>
<path opacity="0.9641" d="M16.4716 26.9381L25.7385 17.0781H24.6931C21.2389 18.3089 11.2983 21.3704 7.69238 22.9458V24.3797C7.69387 29.6904 13.9139 29.912 16.4716 26.9381Z" fill="#C29CE5"/>
<path opacity="0.9671" d="M16.4666 26.927L25.7246 17.0793H24.6941C21.2354 18.3086 11.2948 21.3717 7.69336 22.947V24.3686C7.69336 29.6809 13.9105 29.8993 16.4666 26.927Z" fill="#C19CE5"/>
<path opacity="0.9701" d="M16.4636 26.915L25.7112 17.0781H24.6941C21.2309 18.3074 11.2919 21.3704 7.69336 22.9458V24.3566C7.69336 29.6735 13.9075 29.8874 16.4636 26.915Z" fill="#C19BE5"/>
<path opacity="0.9731" d="M16.4592 26.904L25.6963 17.0793H24.6941C21.2264 18.307 11.2889 21.3717 7.69336 22.947V24.3455C7.69336 29.6655 13.9045 29.8763 16.4592 26.904Z" fill="#C19BE5"/>
<path opacity="0.9761" d="M16.4562 26.8932L25.683 17.0793H24.6941C21.222 18.307 11.2859 21.3717 7.69336 22.947V24.3347C7.69336 29.6578 13.9015 29.864 16.4562 26.8932Z" fill="#C19BE5"/>
<path opacity="0.9791" d="M16.4517 26.8809L25.6681 17.0793H24.6941C21.2175 18.3055 11.2829 21.3701 7.69336 22.947V24.3224C7.69336 29.6501 13.9 29.8532 16.4517 26.8809Z" fill="#C09AE5"/>
<path opacity="0.9821" d="M16.4478 26.8701L25.6537 17.0793H24.6931C21.2121 18.3055 11.279 21.3701 7.69238 22.947V24.3117C7.69387 29.6409 13.8976 29.8409 16.4478 26.8701Z" fill="#C09AE5"/>
<path opacity="0.9851" d="M16.4443 26.8578L25.6398 17.0793H24.6941C21.2086 18.3055 11.277 21.3701 7.69336 22.947V24.2993C7.69336 29.6332 13.8941 29.8301 16.4443 26.8578Z" fill="#C09AE4"/>
<path opacity="0.988" d="M16.4403 26.847L25.6255 17.0793H24.6931C21.2032 18.304 11.2716 21.3701 7.69238 22.947V24.2886C7.69387 29.6255 13.8916 29.8178 16.4403 26.847Z" fill="#C099E4"/>
<path opacity="0.991" d="M16.4359 26.8347L25.6106 17.0793H24.6931C21.1987 18.304 11.2686 21.3701 7.69238 22.947V24.2763C7.69387 29.6178 13.8902 29.8055 16.4359 26.8347Z" fill="#C099E4"/>
<path opacity="0.994" d="M16.4324 26.824L25.5982 17.0793H24.6941C21.1952 18.3024 11.2666 21.3701 7.69336 22.947V24.2655C7.69336 29.6086 13.8867 29.7947 16.4324 26.824Z" fill="#BF99E4"/>
<path opacity="0.997" d="M16.4279 26.812L25.5833 17.0781H24.6941C21.1908 18.3012 11.2636 21.3674 7.69336 22.9458V24.252C7.69336 29.6012 13.8837 29.7827 16.4279 26.812Z" fill="#BF98E4"/>
<path d="M16.4235 26.8009L25.5685 17.0793H24.6941C21.1863 18.3009 11.2606 21.3686 7.69336 22.947V24.2424C7.69336 29.5932 13.8807 29.7717 16.4235 26.8009Z" fill="#BF98E4"/>
</g>
<path fill-rule="evenodd" clip-rule="evenodd" d="M7.69336 8.90154V23.0769C7.69336 25.6832 9.54977 27.497 11.6616 27.832C11.7039 27.8387 11.7463 27.8449 11.7888 27.8504C13.1063 28.0216 14.5101 27.6171 15.6165 26.4724L24.6946 17.0801H24.694L30.8636 10.6969C33.787 7.67231 31.7157 2.5 27.5818 2.5H13.8807C10.4636 2.5 7.69336 5.36615 7.69336 8.90154Z" fill="url(#paint1_linear_7330_16594)"/>
<path d="M49.8963 33.5V11.6818H64.3423V15.4851H54.5092V20.6839H63.3835V24.4872H54.5092V33.5H49.8963ZM67.3599 33.5V17.1364H71.8983V33.5H67.3599ZM69.6397 15.027C68.965 15.027 68.3862 14.8033 67.9032 14.3558C67.4274 13.9013 67.1895 13.358 67.1895 12.7259C67.1895 12.1009 67.4274 11.5646 67.9032 11.1172C68.3862 10.6626 68.965 10.4354 69.6397 10.4354C70.3145 10.4354 70.8897 10.6626 71.3656 11.1172C71.8485 11.5646 72.09 12.1009 72.09 12.7259C72.09 13.358 71.8485 13.9013 71.3656 14.3558C70.8897 14.8033 70.3145 15.027 69.6397 15.027ZM80.0721 24.0398V33.5H75.5337V17.1364H79.859V20.0234H80.0508C80.413 19.0717 81.0202 18.3189 81.8725 17.7649C82.7248 17.2038 83.7582 16.9233 84.9727 16.9233C86.109 16.9233 87.0998 17.1719 87.945 17.669C88.7901 18.1662 89.4471 18.8764 89.9158 19.7997C90.3846 20.7159 90.619 21.8097 90.619 23.081V33.5H86.0806V23.8906C86.0877 22.8892 85.832 22.108 85.3136 21.5469C84.7951 20.9787 84.0813 20.6946 83.1722 20.6946C82.5614 20.6946 82.0217 20.826 81.5529 21.0888C81.0913 21.3516 80.729 21.7351 80.4663 22.2393C80.2106 22.7365 80.0792 23.3366 80.0721 24.0398ZM98.862 33.8089C97.818 33.8089 96.8876 33.6278 96.0708 33.2656C95.2541 32.8963 94.6078 32.353 94.1319 31.6357C93.6632 30.9112 93.4288 30.0092 93.4288 28.9297C93.4288 28.0206 93.5957 27.2571 93.9295 26.6392C94.2633 26.0213 94.7179 25.5241 95.2931 25.1477C95.8684 24.7713 96.5218 24.4872 97.2534 24.2955C97.992 24.1037 98.7662 23.9688 99.5758 23.8906C100.528 23.7912 101.295 23.6989 101.877 23.6136C102.459 23.5213 102.882 23.3864 103.145 23.2088C103.407 23.0312 103.539 22.7685 103.539 22.4205V22.3565C103.539 21.6818 103.326 21.1598 102.9 20.7905C102.481 20.4212 101.884 20.2365 101.11 20.2365C100.293 20.2365 99.6433 20.4176 99.1603 20.7798C98.6774 21.1349 98.3578 21.5824 98.2015 22.1222L94.0041 21.7812C94.2172 20.7869 94.6362 19.9276 95.2612 19.2031C95.8862 18.4716 96.6923 17.9105 97.6795 17.5199C98.6738 17.1222 99.8244 16.9233 101.131 16.9233C102.04 16.9233 102.91 17.0298 103.741 17.2429C104.579 17.456 105.322 17.7862 105.968 18.2337C106.621 18.6811 107.136 19.2564 107.513 19.9595C107.889 20.6555 108.077 21.4901 108.077 22.4631V33.5H103.773V31.2308H103.645C103.383 31.7422 103.031 32.1932 102.591 32.5838C102.15 32.9673 101.621 33.2692 101.003 33.4893C100.385 33.7024 99.6717 33.8089 98.862 33.8089ZM100.162 30.6768C100.829 30.6768 101.419 30.5455 101.93 30.2827C102.442 30.0128 102.843 29.6506 103.134 29.196C103.425 28.7415 103.571 28.2266 103.571 27.6513V25.9148C103.429 26.0071 103.233 26.0923 102.985 26.1705C102.743 26.2415 102.47 26.3089 102.165 26.3729C101.859 26.4297 101.554 26.483 101.248 26.5327C100.943 26.5753 100.666 26.6143 100.417 26.6499C99.8848 26.728 99.4196 26.8523 99.0218 27.0227C98.6241 27.1932 98.3152 27.424 98.095 27.7152C97.8748 27.9993 97.7647 28.3544 97.7647 28.7805C97.7647 29.3984 97.9885 29.8707 98.4359 30.1974C98.8904 30.517 99.4657 30.6768 100.162 30.6768ZM120.302 17.1364V20.5455H110.448V17.1364H120.302ZM112.685 13.2159H117.223V28.4716C117.223 28.8906 117.287 29.2173 117.415 29.4517C117.543 29.679 117.72 29.8388 117.948 29.9311C118.182 30.0234 118.452 30.0696 118.757 30.0696C118.97 30.0696 119.183 30.0518 119.396 30.0163C119.61 29.9737 119.773 29.9418 119.887 29.9205L120.6 33.2976C120.373 33.3686 120.053 33.4503 119.642 33.5426C119.23 33.642 118.729 33.7024 118.139 33.7237C117.046 33.7663 116.087 33.6207 115.263 33.2869C114.446 32.9531 113.811 32.4347 113.356 31.7315C112.901 31.0284 112.678 30.1406 112.685 29.0682V13.2159ZM130.54 33.8196C128.857 33.8196 127.408 33.4787 126.193 32.7969C124.986 32.108 124.056 31.1349 123.402 29.8778C122.749 28.6136 122.422 27.1186 122.422 25.3928C122.422 23.7095 122.749 22.2322 123.402 20.9609C124.056 19.6896 124.975 18.6989 126.161 17.9886C127.355 17.2784 128.754 16.9233 130.359 16.9233C131.438 16.9233 132.443 17.0973 133.374 17.4453C134.311 17.7862 135.128 18.3011 135.824 18.9901C136.527 19.679 137.074 20.5455 137.465 21.5895C137.855 22.6264 138.051 23.8409 138.051 25.233V26.4794H124.233V23.6669H133.779C133.779 23.0135 133.637 22.4347 133.352 21.9304C133.068 21.4261 132.674 21.032 132.17 20.7479C131.673 20.4567 131.094 20.3111 130.433 20.3111C129.744 20.3111 129.134 20.4709 128.601 20.7905C128.075 21.103 127.664 21.5256 127.365 22.0582C127.067 22.5838 126.914 23.1697 126.907 23.8161V26.4901C126.907 27.2997 127.056 27.9993 127.355 28.5888C127.66 29.1783 128.09 29.6328 128.644 29.9524C129.198 30.272 129.855 30.4318 130.615 30.4318C131.119 30.4318 131.58 30.3608 131.999 30.2188C132.419 30.0767 132.777 29.8636 133.075 29.5795C133.374 29.2955 133.601 28.9474 133.757 28.5355L137.955 28.8125C137.742 29.821 137.305 30.7017 136.644 31.4545C135.991 32.2003 135.146 32.7827 134.109 33.2017C133.079 33.6136 131.889 33.8196 130.54 33.8196ZM144.512 17.1364L147.516 22.8572L150.595 17.1364H155.251L150.51 25.3182L155.378 33.5H150.744L147.516 27.843L144.341 33.5H139.654L144.512 25.3182L139.824 17.1364H144.512Z" fill="white"/>
<defs>
<linearGradient id="paint0_linear_7330_16594" x1="31.2944" y1="29.7739" x2="7.6731" y2="29.7739" gradientUnits="userSpaceOnUse">
<stop stop-color="#9676F2"/>
<stop offset="1" stop-color="#377AFB"/>
</linearGradient>
<linearGradient id="paint1_linear_7330_16594" x1="16.1938" y1="17.2347" x2="16.1938" y2="27.9344" gradientUnits="userSpaceOnUse">
<stop stop-color="#18CCF0"/>
<stop offset="1" stop-color="#01A9F6"/>
</linearGradient>
</defs>
</svg>
